<?xml version="1.0" encoding="UTF-8"?>
<svg id="Layer_2" data-name="Layer 2" xmlns="http://www.w3.org/2000/svg" viewBox="0 0 671.44 159.34">
  <defs>
    <style>
      .cls-1 {
        fill: #fff;
      }
    </style>
  </defs>
  <g id="Brand_Manual" data-name="Brand Manual">
    <g>
      <g>
        <path d="M93.39,67.56c-.56-.82-1.51-1.72-2.53-1.88-1.5-.24-3.92.29-5.37.82,2.65.69,5.29-.05,7.9,1.07Z"/>
        <path d="M94.1,71.84c.33-2.65-2.46-1.31-4.2-1.42-1.05-.07-2.22-.44-3.14-.92-.43-.22-2.77-2.12-2.95-1.94.56,2.21,3.44,3.93,5.62,4.05,1.41.08,3.18-.88,4.28-.26.21.12.02.58.39.48Z"/>
        <path d="M96.02,80.88c-2.95.59-1.32,4.21,1.2,3.8.1-.78-.84-.38-1.43-.83-.94-.72-.56-2.27.24-2.97Z"/>
        <path d="M70.99,117.16c-8.75-9.18-7.41-21.57-8.48-33.3l-.47-1.78c-.84,10.77-2.29,23.21,4.11,32.65,3.79,5.59,9.73,9.61,16.4,11.05.24.05.84.24.78-.18-1.13-.24-2.19-.89-3.18-1.48-3.06-1.82-6.72-4.39-9.16-6.95Z"/>
        <path d="M99.85,85.39c.63.04.95-.52.98-1.07.1-1.81-2.77-2.68-3.85-1.19.61.62,1.13-.25,2.05.34.55.36.79,1.29.82,1.92Z"/>
        <path class="cls-1" d="M39.36,124.63c7.65,7.36,17.77,12.64,28.28,14.51l-.99,2.34c-.7.44-6.99-1.68-8.17-2.1-11.42-4.08-21.46-11.76-28.86-21.3l-2.14,1.47,6.89,7.82c-.48,1.32-6.6,7.27-6.4,8.04.34,1.28,9.5,7.79,11.16,8.83,1.15.72,2.4,1.31,3.54,2.04l3.59-7.23-1.92-.99-2.73,4.65-10.12-7.49-.18-.23,4.83-6.07c4.17,3.44,8.52,6.69,13.41,9.06l-4.5,9.73c4.73,2.16,9.51,4.25,14.58,5.49l2.05-7.86-1.78-.47-1.89,5.19-9.39-3.53,2.86-7.13,13.05,4.52-2.36,9.96,5.69,1.08,2.06,1.98,3.88,2.18c-19.38-1.21-38.71-10.58-51.92-24.72C-28.67,80.22,14.53-7.48,88.42.51c51.67,5.59,84.65,59.49,65.34,108.18-11.83,29.83-40.49,49.62-72.58,50.65l3.54-1.8c2.7-2.93,6.15-2.54,9.81-3.26,1.9-.37,3.77-.91,5.65-1.36l-2.75-7.62-1.99.63,1.41,5.08-7.6,1.43.95-2.02,4.02-.97-.92-3.1-2.86.38v-2.38s8.3-1.66,8.3-1.66l3.58,9.5c2.63-.76,5.24-1.73,7.76-2.81,1.37-.59,4.04-1.65,5.16-2.45.19-.14.42-.21.36-.52l-3.92-6.6-2.22,1.09,2.51,4.65-7.87,3.32-.63-.54-3.9-8.48-10.27,2.1-1.22-2.59c5.19-.34,10.57-1.78,15.37-3.76,1.14-.47,3.07-1.25,4.05-1.89.23-.15.42.03.31-.53-7.11-2.62-15.08-6.62-19.2-13.25-.31-.49-1.11-2.47-1.29-2.63-.33-.26-1.84-.45-2.54-.9-3.43-2.21-5.7-8.52-5.98-12.44-6.65-2.22-12.97-7.73-13.52-15.12l.24-2.5c1.14,4.94,4.46,9.77,8.58,12.7,4.25,3.02,17.04,7.6,21.84,5.26,3.25-1.59-.66-5.26-3.09-4.88.46-2.6,5.13-2.44,6.65-.71v-2.38c-.73.82-5.44-1.47-4.75-2.14,1.88.88,6.14,3.62,6.41,0-.58-.06-.86.57-1.48.43-.61-.13-2.11-1.21-3.26-1.51-1.72-.44-5.29-.04-5.47-2.02,2.15.19,4.37-.18,6.53,0,1.27.11,2.27.56,3.45.85.73-.83.42-1.99.47-2.99-1.28.45-2.12-.99-3.66-.45l-4.89,1.52c1.93-1.21,4.59-2.87,6.96-2.44.74.13.51.85,1.35.66l-.68-2.68c.53-1.07,2.5-1.67,2.58-2.92.04-.73-1.54-3.72-1.9-4.73-1.88-5.27-3.13-12.45.7-17.09-2.94-2.86-4.92-6.67-4.97-10.85-.21-.24-1.39,1.02-1.73,1.23-.73.46-2.08.7-2.53,1.03-.32.24-.87,1.5-1.32,2.01-.98,1.12-2.97,3.31-4.04,4.28-.51.47-1.16.69-1.55,1.18,4.9-1.58,8.73-.43,12.68,2.6l.15.49c-.55-.04-.91.91-1.19,1.07-.67.41-4.09-1.93-5.06-2.3-2.9-1.11-4.6.02-7.43.49-.67.11-1.45-.11-2.07.07-.19.06-2.94,2.13-3.14,2.32-.64.6-1.27,2.27-2.12,3.11-.65.64-1.92,1.17-2.38,1.67-.36.39-.94,1.79-1.36,2.44-.89,1.37-1.45.99-1.63,3.12-.43,5.04.81,11.82,4.4,15.59l4.4,3.32c-1.82-.24-3.52-.73-5.06-1.71-5.42-3.44-6.43-11.7-5.87-17.55-5.4,2.27-13.41.03-13.99-6.57-.16-1.87.22-2,1.75-2.95-.58,7.77,8.81,10.67,13.9,5.59.06-.73-.26-.12-.35-.12h-4.28c-2.16,0-5.63-2.85-6.66-4.75-1.09-2.02-.93-2.25,1.31-3.09,1.51,6.58,10.62,7.42,14.73,2.86-4.12.99-9.42.03-12.45-3.12-.18-.18-.79-.85-.38-1.04l1.78-.86c3.88,3.99,11.29,4.35,15.33.5-.35-.15-.69.24-.83.24h-4.04c-1.64,0-6.37-1.52-7.71-2.51-.13-.09-.42-.32-.12-.34l1.96-1.15c.62-.15,1.8.69,2.54.92,4.25,1.3,9.34,1.4,13.18-1.09.63-.92-.27-.11-.35-.11h-5.7c-.95,0-4.49-1.29-5.71-1.66-.34-.1-.42.15-.35-.48l2.49-1.41c3.92,1.64,9.77,2.5,13.19-.49-3.27.33-6.45-1.57-9.62-1.19l-.12-.47,3.68-1.89c1.95.78,4.32,1.39,6.42,1.36.33,0,4.3-.48,3.68-.9-1.91.13-3.56-.91-5.27-1.5-.57-.2-1.42-.03-1.62-.64,1.19-.19,2.11-1.4,3.39-1.15.52.1,1.07.62,1.61.79,1.64.5,3.38.37,5.08.33l2.28-.68-6.18-1.43c.51-.49,2.14-1.19,2.84-1.32,1.51-.29,3.74,1.22,5.48.85.12-.67-.16-.39-.52-.53-.81-.32-1.7-.53-2.57-.66.43-.49,2.13-.82,2.79-.89,1.75-.19,3.01.54,4.68.66,1.4.1,2.78-.11,4.17-.25-3.35-3.7-10.94-1.36-15.15-.06-14.49,4.48-25.61,13.87-38.47,21.18-.27.15-.43.36-.79.28v-3.33c1.55-.37,3.18-1.37,4.59-2.19,9.2-5.34,17.53-11.59,27.44-15.82,4.95-2.11,16.85-6.23,21.68-3.52.64.36.98.97,1.66,1.08-.71-5.18-6.66-5.06-10.58-3.81-2.22.71-4.04,2.11-6.05,2.98-1.9.82-4.21,1.33-6.18,2.02,3.92-3.7,8.77-6.96,14.26-7.61-.29-.54-1.3-.76-1.85-.88-4.43-.94-9.34,2.35-12.53,5.16-1.69,1.48-4.61,5.37-6.06,6.3-1.04.66-2.52.79-3.55,1.56-.07-.39.18-.64.37-.93,1.01-1.53,2.89-3.73,4.14-5.13,3.37-3.74,7.97-7.86,13.06-8.69-1.31-1.13-3.62-.68-5.19-.32-8.54,1.99-13.13,10.74-16.9,17.8l-4.04,2.01c-.25-.25,1.72-2.45,2-2.87,1.08-1.66,1.74-3.47,2.71-5.13,2.78-4.74,5.71-8.91,10.49-11.85-6.06.44-10.77,5.89-13.58,10.9-1.74,3.1-2.92,6.53-4.62,9.64-1.43,2.63-1.79,2.78-4.48,4.08-.22.11-.66.45-.84.11,5.28-6.86,6.78-15.94,13.3-21.99-1.56.62-3.18,1.7-4.49,2.76-5.07,4.1-6.21,10.44-9.17,16.03-1.41,2.67-3.23,6.08-6.06,7.37.02-.57-.09-1.16.05-1.73.23-.87,3.16-5,3.87-6.35,1.4-2.67,2.58-5.52,3.68-8.33-1.35,1.4-2.41,3.05-3.68,4.52-.87,1.02-2.74,2.32-3.15,3.51-1.44,4.2-1.34,15.39.37,19.48.71,1.69,5.57,6.35,7.19,7.54,3.79,2.8,3.37.8,4.71-2.14.13-.28-.11-.43.5-.33.49,2.09.65,5.93-2.25,6.19-1.85.17-2.88-1.22-4.4-1.91-.23,5.13-1.18,10.21-2.26,15.22-.89,4.14-2.87,14.51-5.06,17.53-.53.74-1.21,1.32-1.83,1.97l-5.11,3.08c5.42-.27,9.7,3.19,14.33,5.27,6.4,2.88,13.57,4.75,20.35,6.5l9.51,2.02c-1.02-.1-1.95.26-2.97.26-8.35,0-17.4-2.51-25.13-5.54-6.74-2.65-12.18-7.64-19.91-6.02l-2.6,1.08c4.86-.16,9.53.93,14.01,2.74,2.06.83,3.92,2.06,5.85,2.94,7.69,3.5,16.01,5.33,24.32,6.69.06.41-.54.22-.83.24-6.72.27-14.83-.94-21.09-3.39-4.94-1.93-12.64-6.84-17.88-6.84h-5.82ZM89.25,4.07c-5.85-.51-11.74-.74-17.6-.12l.96,8.21,1.91-.4-.49-5.31,12.22-.03-.34,10.73c8.79.66,17.27,3.37,24.95,7.61l1.19-2.37-9.5-4.3,3.07-9.83c-2.73-1.3-6.04-2.18-9.06-2.84-.65-.14-4.72-1-4.92-.86l-.97,8.3,1.9.24.95-5.71,9.02,2.39-1.89,7.6-12.33-2.64.92-10.68ZM70.97,14.77l-1.68-10.69-14.73,3.33,3.09,8.08,1.87-.83-1.63-5.35,8.91-2.15,2.25,10.47c4.86-.79,9.81-1.22,14.73-.71v-2.62c-4.27-.47-8.59-.23-12.82.47ZM52.66,8.35c-.28-.26-6.15,2.54-6.93,2.93-.85.42-6.01,3.1-6.27,3.49-.19.29-.1.43.01.71.75,1.88,3.6,4.36,4.4,6.43l1.89-1.06c.02-.25-2.38-3.51-2.66-4.24-.08-.22-.29-.4-.08-.65l7.86-4.27,4.74,9.71,11.03-3.33-.33-2.59-10.07,2.6-3.59-9.73ZM78.56,8.35h-2.14v3.33h2.14v-3.33ZM84.02,8.35h-3.56l-.18,3.22.3.35h3.45v-3.57ZM128.78,28.65c-.51.55-3.24,3.79-3.73,3.71l-9.39-7.71,5.41-8.81c-1.28-1.25-12.65-7.2-13.26-6.76l-2.62,7.84,1.9.48,2.5-5.23,7.95,4.28c.36.5-5.3,8.71-4.88,9.5.16.3,4.77,3.32,5.58,3.95,5.28,4.13,10.35,9.56,13.81,15.31.3.21,2.16-1.63,2.1-1.98l-7.33-9.08,7.37-7.13c.23-.2.26-.32.12-.6-.38-.73-3.68-3.54-4.53-4.28-2.05-1.77-4.26-3.38-6.45-4.98-.33-.09-.37.2-.52.37-1.56,1.66-2.89,4.85-4.31,6.74l1.87.94,3.47-4.45,6.67,5.67v.47c-.41.75-1.24,1.24-1.71,1.75ZM65.49,9.78l-4.99.95.72,3.57,4.75-.95-.48-3.57ZM99.94,10.97l-4.75-1.19-.72,3.8,4.4.92c.43-.04.65-2.98,1.06-3.53ZM50.03,14.79l-4.23,2,1.67,2.94c.55.32,3.06-1.78,4-1.64l-1.44-3.31ZM114.66,17.17l-4.36-2.13-1.57,3.29,4.16,2.12c.31-.54,2.09-2.82,1.76-3.29ZM6.33,85.39v-8.56l10.46.24c1.03-23.33,15.5-45.23,36.8-54.72.24-.38-.45-1.76-.66-2.25-.1-.22.14-.43-.35-.31l-9.02,4.94-6.45-8.51c-4.75,3.15-9.04,6.92-12.95,11.04l6.29,5.58,1.07-1.53c-.52-.55-3.96-3.34-3.69-3.93l8.56-7.6c.69.78,5.67,6.12,5.33,6.63-3.94,2.58-7.44,5.79-10.6,9.27l-8.31-6.61-.55.08c-1.11,1.53-7.83,9.61-7.62,10.92l7.03,4.19.73-1.66c-.3-.56-3.3-2.11-4.02-2.65-.22-.17-.4-.21-.4-.56,0-.81,4.17-5.56,4.76-6.68h.71s5.95,4.99,5.95,4.99l-6.34,9.42-9.71-5.25c-2.43,4.44-4.44,9.1-6.04,13.91l8.3,2.49.22-1.88-5.21-1.93c.26-1.15,3.66-8.99,4.16-9.03l6.99,3.58c.27.38-2.12,4.63-2.48,5.45-.87,2.05-1.5,4.22-2.25,6.32l-10.46-2.76c-.91,4.57-2.23,9.09-2.37,13.79,1.08-.02,7.74,1.08,8.1.58l.21-1.76-5.47-.71,1.67-8.8,7.84,1.79c-1.12,3.91-1.83,7.94-2.14,12.01l-10.45-.95c-.42,4.65-.38,9.39.24,14.02l7.68-.74c.68-.15.39-2.03,0-2.12l-5.54.25ZM95.67,29.52c-1.56-6.3-8.43-10.47-14.73-10.22l3.64,1.71c3.42,1.94,6.23,4.62,8,8.16l3.09.35ZM68.1,20.48c-21.77,3.63-39.88,20.69-46.16,41.66-6.31,21.09-1.18,43.9,14.23,59.59,3.02-1.33,6.06-2.69,8.95-4.29,3.79-2.1,7.29-3.82,8.61-8.27,1.66-5.61,2.4-12.07,4.15-17.73.02-.4.08-.38-.3-.3-2.96.58-2.5-.61-4.14-.95-.52-.11-2.04.31-3.01.17-1.4-.2-3.29-1.68-4.04-2.85-.53-.82-.85-2.35-1.15-2.77-.27-.36-1.71-1.03-2.31-1.85-1.79-2.45-1.74-6.42-.88-9.2.2-.65,1.11-2.28,1.1-2.68,0-.34-.52-1.38-.63-1.96-.11-.56.06-1.61-.11-1.91-.04-.07-1.05-.55-1.37-.88-2.22-2.29-1.43-6.7-.35-9.39.48-1.19,2.2-3.37,2.39-4.04.13-.47-.38-1.74-.39-2.5-.05-2.72,2.3-6.11,4.51-7.53-1.39-3.52,1.43-6.54,4.5-7.85-.09-2.12,1.08-4.21,2.81-5.39.71-.49,2.49-.99,2.92-1.35.3-.26.45-1.15.76-1.62,1.84-2.79,4.99-3.31,8.03-4.09l1.91-2.01ZM87.2,25.86c-4.38-4.2-12.13-7.15-17.67-3.59,5.22.54,9.79,2,14.23,4.77.68.43,3.73,2.85,3.97,2.9.41.08,1.73-.39,2.23-.54-.71-1.49-1.62-2.45-2.76-3.54ZM100.42,31.18c-.34-4.44-2.88-8.44-7.12-9.99l3.13,4.12c.56,1.06,1.07,2.14,1.49,3.26.61,1.58.15,3.04,2.5,2.6ZM98.43,105.28c-2.22,2.19-6.44,2.24-9.32,1.82l-.22.16c-.64,1.9-.63,4.06-.3,6.01,1.78,10.57,13.2,14.58,21.54,18.85,7.09-3.81,13.39-9.82,18.17-16.32,22.97-31.19,10.8-75.78-24.17-91.56-1.57-.71-3.54-1.66-5.15-1.74,1.24,2.18,3.27,2.28,5.2,3.59,1.85,1.25,3.71,3.51,4.29,5.69.28,1.03.09,2.56.37,3.19.23.51,1.49,1.07,1.93,1.51,1.83,1.84,2.13,4.99,1.03,7.28,1.39.3,2.19,1.5,2.56,2.8.11.37-.05.92.11,1.2.22.4,1.54.87,1.93,2.23.25.86,0,1.82.2,2.42.12.37,1.84,1.29,2.22,2.76.38,1.47-.38,2.21-.31,2.95.12,1.11,2.26,2.1,1.3,4.72-.54,1.47-1.77,1.34-2.03,1.65-.06.07-.05,1.28-.22,1.81-.34,1.07-1.23,1.22-1.49,1.65-.3.48-.21,1.14-.7,1.86-1.38,2.04-5.61,1.66-5.95,4.51-.2,1.69.14,3.72,0,5.47-.5,6.28-4.37,12.53-7.16,18.04-1.08,2.14-2.21,5.82-3.85,7.44ZM38.4,25.95c.24-.35-1.99-2.56-2.26-3.09l-2.24,2.02,2.28,2.48,2.22-1.41ZM124.06,23.82c-.42.38-2.31,2.29-2.24,2.69l3.4,2.75,2.27-2.45-3.43-2.99ZM83.07,29.75c.1-.43-.13-.47-.4-.67-1.82-1.42-6.31-3.24-8.58-3.78-4.35-1.03-10.28-1.15-13.83,1.95,2.91-.24,5.75-.41,8.67-.12,2.14.22,4.28.68,6.35,1.25,1.27.35,4.2,1.7,5.11,1.78.81.08,1.82-.51,2.68-.42ZM32.14,26.21c-2.69,1.38-.3,2.57,1.12,3.77l1.33-1.29-2.45-2.48ZM106.6,34.27c-.09-2.86-2.04-5.69-4.75-6.66.79.83.46,3.94.76,4.47.04.07,1.08.6,1.39.87.91.81.72,1.71,2.61,1.32ZM136.79,46.89l8.73-5.36c-2.3-3.77-4.71-7.56-7.57-10.93-.27-.31-1.82-2.06-2-2.02l-6.07,5.58,1.5,1.52c.93-.28,3.98-3.57,4.67-3.2.77,1.04,6.55,8.4,6.18,8.93l-9.03,5.24,5.11,10.22c.46.53,1.8-.77,2.39-.95l-3.92-9.02ZM77.13,31.18c-5.91-1.53-12.3-2.89-18.35-1.12-1.8.53-4.41,1.68-4.7,3.74,6.73-2.74,13.9-1.35,20.78-1.91.57-.05,1.94-.22,2.26-.71ZM70.01,34.04c-4.81-.02-9.76.23-14.38,1.66-2.43.75-6.62,2.2-6.53,5.23,4.31-2.19,8.84-3.56,13.54-4.64,2.47-.57,5.58-.35,7.37-2.25ZM26.29,37.61l-2.97-2.14c-.21,0-2.52,3.11-2.46,3.41l2.94,2.29,2.49-3.56ZM138.91,40.69l-3.33-5.23-2.61,1.91,3.23,4.74,2.71-1.42ZM65.02,38.32c-3.78.53-7.82,1.53-11.33,3.05-3.76,1.62-8.77,4.73-8.87,9.31,4.37-4.37,9.66-7.12,15.28-9.55,1.11-.48,3.16-.91,4.03-1.38.3-.16.55-1.11.89-1.43ZM151.98,56.62c.46-.51-4.28-11.41-5.22-12.74-.35-.22-1.25.4-1.59.57-.67.34-5.43,2.98-5.52,3.29-.14.47.47,1.47,1,1.46.86-.01,4.68-2.42,5.15-2.09l3.1,7.96-9.76,3.83c2.53,7.5,3.82,15.45,3.58,23.4h2.38l-.24-9.04,10.44-1.21c-.45-4.46-1.13-8.94-2.58-13.2-.3-.22-3.92.95-4.58,1.16-.57.19-3.16.9-3.25,1.26-.03.11.24,1.18.32,1.29.56.76,4.75-1,5.84-.86.37.29,1.73,7.8,1.39,8.2l-7.83,1.12c-.6-3.79-1.52-7.61-2.6-11.31l9.98-3.09ZM59.31,44.02c-6.49,2.58-16.57,9.03-17.52,16.58-.2,1.58-.07,3.08,1.01,4.34,1.54-7.45,6.86-12.48,12.83-16.64l3.68-4.28ZM110.75,45.69c-1.71-.34-4.46.25-6.3,0,.4.39,1.13,1.15,1.58,1.4,1.02.57,4.57-.66,6.02-.21.36-.31-1.1-1.15-1.31-1.19ZM114.44,51.63c.11-3.28-4.64-2.48-6.89-2.85,1.31,2.91,4.49,1.55,6.89,2.85ZM18.43,50.7l-3.19-1.68-2.02,4.27,3.42,1.41c.26-.06,1.96-3.76,1.79-4.01ZM144.61,49.73l-3.55,1.54,1.44,3.43c.45.32,2.85-.9,3.54-.93l-1.43-4.04ZM116.57,56.86c.56-3.22-4.4-3.62-6.65-4.28l.88,1.67,5.77,2.6ZM45.06,81.83c.04-3.19,1.38-6.15,2.9-8.87.96-1.71,4.09-5.65,4.41-7.23.32-1.58-.06-3.93.06-5.65.15-2.26.69-4.53.95-6.78-.56.28-.73,1.31-.84,1.89-.67,3.32-.59,5.9-1.96,9.21-2.36,5.67-8.99,9.04-6.46,16.13.06.17.64,1.74.96,1.3ZM116.84,62.3c1.01.59,1.54-1.45.58-2.12l-6.07-3.55c.35,1.4,2.05,2.03,3.09,2.97.68.61,1.39,1.36,2.03,2.02.19.19.33.66.37.68ZM44.82,68.75c3.29-2.86,4.83-7.66,5.46-11.89-2.9,3.23-5.74,7.31-5.46,11.89ZM112.06,59.48c.25.98.11,2.18.61,3.07.54.97,2.29,1.94,2.83,3.11.34-.24.37-.43.37-.83,0-1.25-2.93-4.29-3.82-5.35ZM13.93,64.47l-3.8-.72-.71,4.27,3.53.46.97-4.02ZM107.67,69.46c-1.09-.15-2.44.11-3.56,0l-.24-.48c2.17-1.92,4.6-.27,6.77.71l1.32-4.29c-5.71-4.42-10.59,1.16-9.86,7.14,1.85-1.25,3.69.72,5.56.47,1.26-.17,2.44-1.75,3.94-1.42-.74-1.01-2.74-1.98-3.92-2.14ZM150.08,68.27l-.72-4.28-3.7.94.83,3.71,3.58-.38ZM112.78,69.23c1.64-.96,1.23-2.13.47-3.56l-.47,3.56ZM51.95,88.25c-1.83-4.08-.75-8.31.31-12.41.25-.99,1.31-3.42,1.35-4.12.05-.73-.7-1.62-.47-2.48-1.52,1.9-3.13,4.39-4.21,6.61-1.37,2.83-2.54,6.58-1.19,9.62.72,1.62,2.35,3.02,4.21,2.8ZM108.26,73.98c-1.75.73-3.13-.55-4.75-.95.84,1.48,2.46,2.97,4.26,2.83l.49-1.88ZM147.23,77.07h5.94l-.24,8.32-10.46-.48c-.33,4.02-1.01,8.02-2.14,11.89l2.61.23c.56-3.24,1.72-6.43,1.67-9.74l10.69.72c.27-4.54.59-9.02.24-13.56l-8.32.71v1.9ZM54.56,75.65c-.73,3.67-2.66,9.01-.11,12.35,1.56,2.03,4.3,1.2,4.58-1.24-1.95-3.25-2.78-6.95-4.06-10.46-.09-.25-.08-.71-.41-.65ZM57.99,77.45c-.1-.1-.18-.22-.24-.34l-.28.27,2.32,5.64.66-2.94c-.8-.89-1.62-1.78-2.46-2.62ZM12.03,78.97h-3.8l.24,4.04,3.56-.24v-3.8ZM16.78,78.97h-2.38l.24,9.99-10.21,1.57,2.85,12.94,7.84-2.5-.48-1.78-5.46,1.43-1.64-8.3c2.13-.15,5.23-1.23,7.24-1.2.21,0,.34.03.46.22l2.72,10.95-9.34,3.14c-.27.1-.38.2-.36.5.03.6,1.68,4.24,2.06,5.08.48,1.08,4.4,8.8,4.91,8.84l6.48-4.12-1.01-1.78-4.64,2.27c-1.6-2.9-3.45-5.81-4.29-9.03l7.61-2.76c1.2,4.24,3.56,8.06,5.71,11.88-2.15,1.16-4.31,2.58-6.35,3.99-.4.28-2.27,1.5-2.19,1.82.93,1.44,8.43,11.22,9.34,11.06l5.36-5.78-1.29-1.34c-.24,0-3.03,2.99-3.55,3.34-.23.15-.41.29-.71.24l-5.57-6.85v-.5c1.13-.75,8.05-5.23,8.05-6.1-7.61-10.78-11.86-23.93-11.41-37.21ZM151.03,78.97h-3.8v3.8h3.56l.24-3.8ZM154.8,90.42l-8.28-.98-.24,2.14,5.71.96-2.14,9.27-10.21-3.09c-1.02,4.73-3.56,8.98-5.6,13.32l11.3,5.83c.88-1.2,5.76-10.83,5.36-11.32l-7.74-2.85-.24,1.66,4.99,1.91-3.48,7.15-6.98-3.35c1.78-3.25,3.55-6.65,4.76-10.22l9.74,3.57c1.19-4.62,2.75-9.19,3.06-14ZM10.61,98.23l3.46-.94-.85-4.06-3.56.72.95,4.28ZM149.37,94.43l-3.56-.72-.95,3.8,3.56.95.95-4.04ZM141.92,107.05l-1.79,3.2,3.19,1.75,1.76-3.4c-.07-.3-2.8-1.65-3.15-1.55ZM19.13,111.04c.32-.55-1.39-2.75-1.4-3.53l-3.09,1.19,1.67,3.8,2.82-1.46ZM132.5,113.93c-4.59,7.93-11.55,14.2-19.01,19.39.41.71,1.22,1.92,2.06,1.6.83-.32,3.82-2.69,4.7-3.39,1.27-1.02,2.43-2.17,3.58-3.32l7.59,6.9c4.76-4.05,8.9-9.04,12.23-14.38l-11.16-6.79ZM25.7,121.07l-2.74,2.02,2.73,3.4c.48-.29,2.56-1.96,2.48-2.42l-2.47-2.99ZM128.56,135.7c-.58-.62-4.09-4.47-4.46-4.4l-1.32,1.25,3.06,4.07-7.27,5.34-6.86-7.78-9.86,5.06.72,2.03c.54.49,8.35-3.74,9.59-4.25l5.93,8.27,11.56-8.07c.23-.32-.86-1.28-1.09-1.52ZM36.03,132l-1.86,2.74c.44.49,2.35,2.16,2.89,2l1.78-2.48-2.81-2.26ZM120.75,133.67l-3.67,3,1.99,2.69,3.91-2.99-1.89-2.6-.35-.1ZM42.19,136.54l-1.3-.72c-.59.89-2.43,2.47-.76,3.14,1.05.42,1.72-1.62,2.05-2.42ZM107.78,141.75l-4.04,1.43,1.54,3.29c.62-.5,3.48-1.15,3.67-1.79l-1.17-2.94ZM57.89,144.13l-5.22-1.9-1.19,3.09,5.46,2.14.95-3.33Z"/>
        <path class="cls-1" d="M70.99,117.16c2.44,2.56,6.1,5.13,9.16,6.95.99.59,2.06,1.23,3.18,1.48.06.42-.54.23-.78.18-6.67-1.44-12.61-5.46-16.4-11.05-6.4-9.44-4.95-21.88-4.11-32.65l.47,1.78c1.07,11.74-.27,24.13,8.48,33.3Z"/>
        <path class="cls-1" d="M94.1,71.84c-.37.09-.19-.36-.39-.48-1.1-.62-2.86.34-4.28.26-2.18-.13-5.06-1.84-5.62-4.05.17-.18,2.52,1.72,2.95,1.94.93.48,2.09.85,3.14.92,1.73.11,4.52-1.23,4.2,1.42Z"/>
        <path class="cls-1" d="M93.39,67.56c-2.61-1.11-5.24-.37-7.9-1.07,1.45-.53,3.87-1.05,5.37-.82,1.01.16,1.97,1.07,2.53,1.88Z"/>
        <path class="cls-1" d="M99.85,85.39c-.03-.63-.27-1.56-.82-1.92-.92-.59-1.43.28-2.05-.34,1.08-1.49,3.95-.62,3.85,1.19-.03.55-.35,1.11-.98,1.07Z"/>
        <path class="cls-1" d="M96.02,80.88c-.79.69-1.17,2.25-.24,2.97.59.45,1.53.06,1.43.83-2.52.41-4.15-3.21-1.2-3.8Z"/>
        <path class="cls-1" d="M133.84,117.26h.34s6.09,4.36,6.09,4.36l-8.47,9.86c-.75-.64-5.71-4.46-5.61-5.04,2.79-2.83,5.71-5.71,7.64-9.19ZM137.42,122.01l-2.96-1.64-1.59,2.11,2.75,1.88,1.79-2.35ZM131.56,123.69l-2.75,2.72,2.75,2.49,2.71-2.97-2.71-2.25Z"/>
        <path class="cls-1" d="M76.25,135.73c11.93-1.43,18.18,13.86,8.27,21.05-8.83,6.41-20.9-1.81-18.09-12.27,1.18-4.38,5.23-8.23,9.83-8.78ZM81.81,147.08l-3.83-7.61-4.07,7.61h7.9ZM72.48,147.08l3.59-7.37c-2.23,2.62-5.02,4.71-7.18,7.37h3.59ZM86.84,147.08l-6.94-6.9,3.35,6.9h3.59ZM75.83,155.4l-3.46-6.9c-.61-.54-2.59-.09-3.47-.23l6.94,7.13ZM81.81,148.27h-7.9l4.07,7.85,3.83-7.85ZM87.08,148.27h-3.47c-1.38,2.29-2.73,4.64-3.71,7.13l7.18-7.13Z"/>
      </g>
      <g>
        <path class="cls-1" d="M197.81,138.46c-1.72,0-3.1-.57-4.13-1.71-1.04-1.14-1.55-2.63-1.55-4.49s.55-3.47,1.66-4.64c1.1-1.17,2.55-1.76,4.34-1.76,1.18,0,2.19.25,3.01.76s1.4,1.14,1.73,1.89l-1.31.6c-.27-.58-.71-1.04-1.32-1.37-.61-.33-1.33-.5-2.16-.5-1.33,0-2.4.44-3.19,1.31-.8.87-1.2,2.09-1.2,3.66s.38,2.71,1.14,3.57c.76.85,1.76,1.28,3,1.28,1.1,0,2.05-.33,2.84-1s1.2-1.62,1.24-2.88h-3.79v-1.35h5.29v1.14c0,1.74-.54,3.09-1.61,4.05-1.08.96-2.4,1.43-3.97,1.43Z"/>
        <path class="cls-1" d="M213.97,138.27l-3.04-5.02h-1.69v5.02h-1.49v-11.49c0-.19.07-.36.2-.5.14-.14.3-.2.5-.2h3.33c1.25,0,2.21.33,2.88,1,.67.67,1,1.54,1,2.62,0,.94-.26,1.72-.79,2.31-.53.6-1.28.98-2.24,1.15l3.28,5.1h-1.93ZM209.25,127.43v4.52h2.17c.88,0,1.54-.2,2.01-.6s.69-.97.69-1.71c0-.69-.23-1.24-.68-1.63-.46-.39-1.1-.59-1.95-.59h-2.24Z"/>
        <path class="cls-1" d="M227.43,137.33c-.76.75-1.85,1.13-3.26,1.13s-2.5-.38-3.25-1.13-1.14-1.77-1.14-3.06v-8.19h1.49v8.13c0,1.9.97,2.85,2.9,2.85s2.92-.95,2.92-2.85v-8.13h1.49v8.19c0,1.29-.38,2.3-1.14,3.06Z"/>
        <path class="cls-1" d="M237.52,126.08c1.27,0,2.26.36,2.95,1.08.69.72,1.03,1.64,1.03,2.74,0,1.23-.35,2.18-1.06,2.85-.71.67-1.72,1.01-3.06,1.01h-2.39v4.51h-1.49v-11.49c0-.19.07-.36.2-.5.14-.14.3-.2.5-.2h3.31ZM237.42,132.42c1.68,0,2.53-.85,2.53-2.54,0-.77-.22-1.37-.66-1.8-.44-.43-1.07-.64-1.9-.64h-2.39v4.99h2.42Z"/>
        <path class="cls-1" d="M250.77,138.46c-1.73,0-3.13-.58-4.19-1.73-1.06-1.16-1.6-2.67-1.6-4.55s.53-3.41,1.6-4.58c1.06-1.16,2.46-1.74,4.19-1.74s3.11.58,4.17,1.74c1.06,1.16,1.59,2.69,1.59,4.58s-.53,3.39-1.59,4.55c-1.06,1.16-2.45,1.73-4.17,1.73ZM250.77,137.06c1.24,0,2.25-.43,3.03-1.29.78-.86,1.17-2.06,1.17-3.59s-.39-2.75-1.17-3.62c-.78-.86-1.79-1.3-3.03-1.3s-2.27.43-3.06,1.3c-.79.87-1.18,2.07-1.18,3.62s.39,2.73,1.18,3.59c.79.86,1.8,1.29,3.06,1.29Z"/>
      </g>
      <path class="cls-1" d="M298.97,130.47c3.33-.07,3.22,5.04.09,5.05s-3.27-4.98-.09-5.05Z"/>
      <polygon class="cls-1" points="367.84 131.28 372.73 121.86 377.5 131.28 367.84 131.28"/>
      <path class="cls-1" d="M276.26,121.89l37.05-.04c12.38.74,13.32,17.79,1.43,20.04-12.78.32-25.6.04-38.4.14-12.79-.96-12.88-19.11-.08-20.14ZM315.9,126.57l-2,.23-.05,2.06-1.46.05-.06,1.65,1.52.11c-.14,3.64-.48,7.63,4.58,6.28l-.48-1.81c-.08-.06-1.04.52-1.68.05-.05-.04-.37-.44-.37-.47v-4.05h2.11c.38-.45.1-1.24.18-1.81h-2.29v-2.29ZM274.45,128.65c-1.02.12-2.31.62-2.69,1.66-.51,1.37.22,2.57,1.51,3.08.97.38,3.76.16,3.33,1.52s-3.47.41-4.24-.34l-1,1.36c1.59,2.02,6.85,2.15,7.31-.88.25-1.65-.85-2.61-2.36-2.9-.75-.15-3.05.03-2.67-1.27.27-.93,2.98-.6,3.55.15.15-.36,1.16-1.07.97-1.44-.12-.23-1.22-.71-1.52-.79-.71-.2-1.47-.23-2.2-.15ZM301.71,137.07h1.75v-8.21h-1.93v.97c-.5-.15-.67-.59-1.16-.83-1.13-.55-2.78-.38-3.87.2-2.58,1.38-2.59,5.99-.12,7.54,1.14.71,2.99.84,4.15.12.38-.24.57-.66,1-.75l.02.77.16.2ZM305.28,137.07h1.87c.17-.11.17-.24.19-.42.15-1.27-.33-4.23.25-5.18s2.35-1.08,3.18-.32l.89-1.73c-.82-.85-2.32-1.01-3.39-.53l-1.06.81-.12-.85h-1.81v8.21ZM281.78,128.86h-1.75v8.21h2.05v-5.01c0-.3.58-1.03.85-1.2.53-.33,1.52-.27,1.99.17.13.13.54.9.54,1.03v5.01h2.05v-4.77c0-.2.37-.97.54-1.15.56-.6,1.7-.68,2.3-.12.18.17.54.95.54,1.15v4.89h2.05v-4.89c0-.19-.25-1.11-.33-1.36-.69-2.11-3.31-2.64-5.1-1.53l-.91.9c-.68-1.62-2.82-1.91-4.16-.9-.19.14-.22.39-.31.42-.37.13,0-.74-.36-.85Z"/>
      <path class="cls-1" d="M371.2,117.06c14.94-1.22,22.26,16.86,11.07,26.41-7.04,6.01-17.97,3.95-22.62-3.95-5.46-9.26.83-21.59,11.55-22.47ZM370.71,119.23c-9.24.86-13.86,12.42-8.77,19.93,7.24,10.68,24.28,5.13,23.53-8.07-.44-7.84-7.22-12.56-14.76-11.86Z"/>
      <path class="cls-1" d="M345.68,117.75c8.33.71,12.88,10.71,8.73,17.79-1.99,3.4-5.89,5.47-9.75,5.89-.17.2.08,4.39,0,5.13-.02.18-.01.31-.19.42h-1.81l-.18-.18v-29.05c1.04.06,2.17-.09,3.2,0ZM344.65,139.25c5.68-.14,9.49-4.91,9.19-10.45-.28-5.07-4.29-8.52-9.19-8.99v19.45Z"/>
      <polygon class="cls-1" points="328.83 117.75 328.83 144.8 334.26 144.8 334.26 146.8 334.08 146.98 326.65 146.98 326.65 117.75 328.83 117.75"/>
      <polygon class="cls-1" points="338.37 117.75 338.37 146.8 338.19 146.98 336.2 146.98 336.2 117.75 338.37 117.75"/>
      <polygon class="cls-1" points="377.5 132.61 372.73 142.03 367.84 132.61 377.5 132.61"/>
      <polygon class="cls-1" points="383.78 132.61 374.54 141.91 379.19 132.61 383.78 132.61"/>
      <polygon class="cls-1" points="366.15 132.61 370.8 141.91 361.56 132.61 366.15 132.61"/>
      <polygon class="cls-1" points="366.15 131.28 361.56 131.28 370.74 122.1 366.15 131.28"/>
      <polygon class="cls-1" points="383.78 131.28 379.19 131.28 374.6 122.1 383.78 131.28"/>
      <g id="Mark_Larken_" data-name="Mark [Larken]">
        <g>
          <path class="cls-1" d="M209.29,78.83v.38c7.65,1.37,11.65,5.03,11.65,10.5,0,6.56-4.92,9.95-14.93,9.95-2.35,0-5.41-.22-7.22-.22h-10.22v-.6h4.92v-37.72h-4.92v-.6h8.58c1.69,0,4.54-.22,6.72-.22,8.64,0,14.49,3.94,14.49,10.06,0,3.99-2.52,6.67-9.08,8.47ZM200.26,78.88h6.01c4.21,0,5.3-2.35,5.3-8.64,0-2.62-.11-4.37-.77-6.18-.77-2.08-2.3-3.17-6.56-3.17-.66,0-2.62.11-3.99.22v17.77ZM200.26,98.73c1.75.16,4.65.33,6.23.33,5.85,0,7.11-4.26,7.11-9.79,0-6.12-1.26-9.79-6.83-9.79h-6.51v19.24Z"/>
          <path class="cls-1" d="M255.1,60.51v9.4h-.44c-2.3-6.78-6.18-8.8-11.26-8.8h-5.69v17.93h1.26c5.74,0,7.87-3.06,8.37-7.6h.44v15.96h-.44c-.49-4.92-2.95-7.76-8.53-7.76h-1.09v19.19h8.36c5.85,0,9.4-3.17,11.75-10.33h.44v10.93h-32.26v-.6h4.92v-37.72h-4.92v-.6h29.09Z"/>
          <path class="cls-1" d="M280.13,60.51v.6h-4.98v37.72h3.99c7.22,0,13.61-4.54,15.03-11.81h.44v12.41h-31.16v-.6h4.92v-37.72h-4.92v-.6h16.67Z"/>
          <path class="cls-1" d="M316.6,60.51v.6h-4.98v37.72h3.99c7.22,0,13.61-4.54,15.03-11.81h.44v12.41h-31.16v-.6h4.92v-37.72h-4.92v-.6h16.67Z"/>
          <path class="cls-1" d="M352.51,59.03h.44l15.91,39.8h3.94v.6h-16.51v-.6h5.25l-5.3-13.72h-13.39l-5.36,13.72h4.7v.6h-9.35v-.6h3.88l15.8-39.8ZM343.11,84.51h12.85l-6.45-16.24-6.4,16.24Z"/>
          <path class="cls-1" d="M394.33,78.77v.22c3.5.55,6.34,1.48,8.15,3.17,2.24,2.08,3.01,4.32,3.01,10.55,0,5.41.98,6.34,3.12,6.34,1.15,0,1.8-.33,3.06-1.31l.44.6c-1.53,1.15-2.68,1.53-4.92,1.53-5.63,0-9.02-2.57-9.02-9.95,0-6.18-.44-7.93-1.69-9.08-1.15-1.09-2.73-1.59-4.76-1.59h-6.18v19.57h4.98v.6h-16.67v-.6h4.92v-37.72h-4.92v-.6h9.9c1.53,0,3.99-.22,5.96-.22,8.04,0,14.32,3.61,14.32,10.06,0,4.1-3.77,7.11-9.68,8.42ZM385.53,78.66h6.18c3.5,0,5.25-2.46,5.25-8.31,0-6.34-2.35-9.46-7.33-9.46-1.15,0-3.17.22-4.1.27v17.5Z"/>
          <path class="cls-1" d="M431.51,60.51v.6h-4.92v37.72h4.92v.6h-16.62v-.6h4.92v-37.72h-4.92v-.6h16.62Z"/>
          <path class="cls-1" d="M459.11,59.74h.44v10.88h-.44c-2.35-7.65-5.3-10.5-9.29-10.5-3.77,0-7.16,2.35-7.16,6.56,0,4.54,2.62,6.62,10.99,10.33,2.46,1.09,4.48,2.08,5.85,3.12,3.55,2.62,3.88,5.52,3.88,7.6,0,6.4-6.01,12.68-12.9,12.68-5.63,0-7.16-2.08-10.11-2.08-1.31,0-1.86.6-2.24,1.53h-.44v-13.83h.44c1.2,8.09,6.62,13.78,12.36,13.78,5.03,0,8.91-2.79,8.91-7.44,0-3.55-1.86-4.92-4.7-6.62-2.95-1.75-6.51-3.06-10.11-5.08-4.15-2.35-5.63-4.87-5.63-9.02,0-6.34,4.87-12.14,11.1-12.14,3.17,0,5.9,1.75,7.27,1.75.93,0,1.53-.38,1.8-1.53Z"/>
          <path class="cls-1" d="M513.01,60.89h.44v11.37h-.44c-1.86-8.15-5.74-12.14-11.21-12.14-3.44,0-5.96,1.2-7.65,3.77-1.64,2.51-2.51,8.04-2.51,16.51,0,10.33.93,13.34,2.3,15.75,1.37,2.41,3.94,3.66,7.82,3.66,6.4,0,10.44-3.88,12.25-11.54h.44v11.54h-.44c-.6-.71-.87-.98-2.13-.98-1.91,0-5.03,1.59-9.84,1.59-10.66,0-18.15-8.04-18.15-19.63,0-12.74,9.46-21.27,17.88-21.27,4.16,0,7.44,2.41,9.62,2.41.82,0,1.2-.22,1.64-1.04Z"/>
          <path class="cls-1" d="M536.36,60.51v.6h-4.98v37.72h3.99c7.22,0,13.61-4.54,15.03-11.81h.44v12.41h-31.16v-.6h4.92v-37.72h-4.92v-.6h16.67Z"/>
          <path class="cls-1" d="M573.31,60.51v.6h-4.92v37.72h4.92v.6h-16.62v-.6h4.92v-37.72h-4.92v-.6h16.62Z"/>
          <path class="cls-1" d="M588.78,60.51l19.24,27.45v-26.84h-4.92v-.6h10.44v.6h-4.92v38.76h-.44l-24.44-34.77v33.73h4.98v.6h-10.5v-.6h4.92v-37.72h-4.92v-.6h10.55Z"/>
          <path class="cls-1" d="M635.08,60.51v.6h-4.92v37.72h4.92v.6h-16.62v-.6h4.92v-37.72h-4.92v-.6h16.62Z"/>
          <path class="cls-1" d="M670.02,60.89h.44v11.37h-.44c-1.86-8.15-5.74-12.14-11.21-12.14-3.44,0-5.96,1.2-7.65,3.77-1.64,2.51-2.51,8.04-2.51,16.51,0,10.33.93,13.34,2.3,15.75,1.37,2.41,3.94,3.66,7.82,3.66,6.4,0,10.44-3.88,12.25-11.54h.44v11.54h-.44c-.6-.71-.87-.98-2.13-.98-1.91,0-5.03,1.59-9.84,1.59-10.66,0-18.15-8.04-18.15-19.63,0-12.74,9.46-21.27,17.88-21.27,4.16,0,7.44,2.41,9.62,2.41.82,0,1.2-.22,1.64-1.04Z"/>
        </g>
      </g>
    </g>
  </g>
</svg>